name ./resultDataOpenSim/trcMotMarkerGrf/sub10/grf-03-06.mot
datacolumns 19
datarows 22
range 1.00800000 1.09200000
endheader

                time	     ground_force_vx	     ground_force_vy	     ground_force_vz	     ground_force_px	     ground_force_py	     ground_force_pz	   l_ground_force_vx	   l_ground_force_vy	   l_ground_force_vz	   l_ground_force_px	   l_ground_force_py	   l_ground_force_pz	     ground_torque_x	     ground_torque_y	     ground_torque_z	   l_ground_torque_x	   l_ground_torque_y	   l_ground_torque_z	
          1.00800000	          0.00000000	          0.00000000	          0.00000000	          0.00000000	          0.00000000	          0.00000000	         -5.79190871	        306.02547878	         24.98825948	         -0.01230122	         -0.05000000	         -0.14121489	          0.00000000	          0.00000000	          0.00000000	          0.00000000	         -1.59695087	          0.00000000	
          1.01200000	          0.00000000	          0.00000000	          0.00000000	          0.00000000	          0.00000000	          0.00000000	         -2.94011673	        304.17006459	         25.26537443	         -0.01246138	         -0.05000000	         -0.14115332	          0.00000000	          0.00000000	          0.00000000	          0.00000000	         -1.72099452	          0.00000000	
          1.01600000	          0.00000000	          0.00000000	          0.00000000	          0.00000000	          0.00000000	          0.00000000	          0.20224106	        303.30995597	         25.55114457	         -0.01260550	         -0.05000000	         -0.14112714	          0.00000000	          0.00000000	          0.00000000	          0.00000000	         -1.85428140	          0.00000000	
          1.02000000	          0.00000000	          0.00000000	          0.00000000	          0.00000000	          0.00000000	          0.00000000	          3.61832673	        303.57001592	         25.84031118	         -0.01267517	         -0.05000000	         -0.14107303	          0.00000000	          0.00000000	          0.00000000	          0.00000000	         -1.99577967	          0.00000000	
          1.02400000	          0.00000000	          0.00000000	          0.00000000	          0.00000000	          0.00000000	          0.00000000	          7.27259182	        304.99909725	         26.11123013	         -0.01268240	         -0.05000000	         -0.14099456	          0.00000000	          0.00000000	          0.00000000	          0.00000000	         -2.14509746	          0.00000000	
          1.02800000	          0.00000000	          0.00000000	          0.00000000	          0.00000000	          0.00000000	          0.00000000	         11.09791281	        307.61064948	         26.33377531	         -0.01269270	         -0.05000000	         -0.14090925	          0.00000000	          0.00000000	          0.00000000	          0.00000000	         -2.30285342	          0.00000000	
          1.03200000	          0.00000000	          0.00000000	          0.00000000	          0.00000000	          0.00000000	          0.00000000	         14.98782570	        311.45698315	         26.48308593	         -0.01275612	         -0.05000000	         -0.14080697	          0.00000000	          0.00000000	          0.00000000	          0.00000000	         -2.47089329	          0.00000000	
          1.03600000	          0.00000000	          0.00000000	          0.00000000	          0.00000000	          0.00000000	          0.00000000	         18.79948540	        316.67046147	         26.55543623	         -0.01288321	         -0.05000000	         -0.14065684	          0.00000000	          0.00000000	          0.00000000	          0.00000000	         -2.65239151	          0.00000000	
          1.04000000	          0.00000000	          0.00000000	          0.00000000	          0.00000000	          0.00000000	          0.00000000	         22.36408900	        323.45356124	         26.57758870	         -0.01304341	         -0.05000000	         -0.14040869	          0.00000000	          0.00000000	          0.00000000	          0.00000000	         -2.85184475	          0.00000000	
          1.04400000	          0.00000000	          0.00000000	          0.00000000	          0.00000000	          0.00000000	          0.00000000	         25.51031685	        332.02342420	         26.58908859	         -0.01318337	         -0.05000000	         -0.14002046	          0.00000000	          0.00000000	          0.00000000	          0.00000000	         -3.07491142	          0.00000000	
          1.04800000	          0.00000000	          0.00000000	          0.00000000	          0.00000000	          0.00000000	          0.00000000	         28.09277440	        342.55642893	         26.59681971	         -0.01324917	         -0.05000000	         -0.13949616	          0.00000000	          0.00000000	          0.00000000	          0.00000000	         -3.32798158	          0.00000000	
          1.05200000	          0.00000000	          0.00000000	          0.00000000	          0.00000000	          0.00000000	          0.00000000	         30.00418690	        355.18323696	         26.54403761	         -0.01319211	         -0.05000000	         -0.13886464	          0.00000000	          0.00000000	          0.00000000	          0.00000000	         -3.61733020	          0.00000000	
          1.05600000	          0.00000000	          0.00000000	          0.00000000	          0.00000000	          0.00000000	          0.00000000	         31.18868174	        369.99550261	         26.32824759	         -0.01298625	         -0.05000000	         -0.13814901	          0.00000000	          0.00000000	          0.00000000	          0.00000000	         -3.94781936	          0.00000000	
          1.06000000	          0.00000000	          0.00000000	          0.00000000	          0.00000000	          0.00000000	          0.00000000	         31.68154217	        387.00016893	         25.85570567	         -0.01267040	         -0.05000000	         -0.13738610	          0.00000000	          0.00000000	          0.00000000	          0.00000000	         -4.32139940	          0.00000000	
          1.06400000	          0.00000000	          0.00000000	          0.00000000	          0.00000000	          0.00000000	          0.00000000	         31.63771371	        406.06413309	         25.09446909	         -0.01233922	         -0.05000000	         -0.13664288	          0.00000000	          0.00000000	          0.00000000	          0.00000000	         -4.73595806	          0.00000000	
          1.06800000	          0.00000000	          0.00000000	          0.00000000	          0.00000000	          0.00000000	          0.00000000	         31.30922225	        426.94009742	         24.09118658	         -0.01208214	         -0.05000000	         -0.13598773	          0.00000000	          0.00000000	          0.00000000	          0.00000000	         -5.18510469	          0.00000000	
          1.07200000	          0.00000000	          0.00000000	          0.00000000	          0.00000000	          0.00000000	          0.00000000	         30.99784826	        449.37042217	         22.94713425	         -0.01194095	         -0.05000000	         -0.13545116	          0.00000000	          0.00000000	          0.00000000	          0.00000000	         -5.65911918	          0.00000000	
          1.07600000	          0.00000000	          0.00000000	          0.00000000	          0.00000000	          0.00000000	          0.00000000	         31.00610437	        473.15426125	         21.78460086	         -0.01187901	         -0.05000000	         -0.13500484	          0.00000000	          0.00000000	          0.00000000	          0.00000000	         -6.14673294	          0.00000000	
          1.08000000	          0.00000000	          0.00000000	          0.00000000	          0.00000000	          0.00000000	          0.00000000	         31.57280650	        498.08413887	         20.72736021	         -0.01183291	         -0.05000000	         -0.13459304	          0.00000000	          0.00000000	          0.00000000	          0.00000000	         -6.63700465	          0.00000000	
          1.08400000	          0.00000000	          0.00000000	          0.00000000	          0.00000000	          0.00000000	          0.00000000	         32.81968290	        523.86084199	         19.88400736	         -0.01178036	         -0.05000000	         -0.13420154	          0.00000000	          0.00000000	          0.00000000	          0.00000000	         -7.12055531	          0.00000000	
          1.08800000	          0.00000000	          0.00000000	          0.00000000	          0.00000000	          0.00000000	          0.00000000	         34.76817327	        550.16820925	         19.32693340	         -0.01171872	         -0.05000000	         -0.13385098	          0.00000000	          0.00000000	          0.00000000	          0.00000000	         -7.58983734	          0.00000000	
          1.09200000	          0.00000000	          0.00000000	          0.00000000	          0.00000000	          0.00000000	          0.00000000	         37.40744482	        576.81872230	         19.08707458	         -0.01164942	         -0.05000000	         -0.13356062	          0.00000000	          0.00000000	          0.00000000	          0.00000000	         -8.03868865	          0.00000000	
